# xmcd
#
# Track frame offsets:
#	150
#	16023
#	30345
#	42898
#	55800
#	69074
#	80281
#	94308
#	105883
#	118445
#
# Disc length: 1788 seconds
#
# Revision: 1
# Processed by: cddbd v1.5.2PL0 Copyright (c) Steve Scherf et al.
# Submitted via: EZCDAudioConverter 2.0.7.1
#
DISCID=6b06fa0a
DTITLE=Glen Campbell - 10 Great Songs 
DYEAR=2012
DGENRE=Country
TTITLE0=Rhinestone Cowboy
TTITLE1=Wichita Lineman
TTITLE2=Galveston
TTITLE3=By The Time I Get To Phoenix
TTITLE4=Gentle On My Mind
TTITLE5=Try A Little Kindness
TTITLE6=Country Boy (You Got Your Feet In L.A.)
TTITLE7=Dreams Of The Everyday Housewife
TTITLE8=Bonaparte's Retreat
TTITLE9=These Days
EXTD=
EXTT0=
EXTT1=
EXTT2=
EXTT3=
EXTT4=
EXTT5=
EXTT6=
EXTT7=
EXTT8=
EXTT9=
PLAYORDER=
